<?xml version="1.0" standalone="no"?>
<!DOCTYPE svg PUBLIC "-//W3C//DTD SVG 20010904//EN"
 "http://www.w3.org/TR/2001/REC-SVG-20010904/DTD/svg10.dtd">
<svg version="1.0" xmlns="http://www.w3.org/2000/svg"
 width="1280.000000pt" height="1023.000000pt" viewBox="0 0 1280.000000 1023.000000"
 preserveAspectRatio="xMidYMid meet">
<metadata>
Created by potrace 1.15, written by Peter Selinger 2001-2017
</metadata>
<g transform="translate(0.000000,1023.000000) scale(0.100000,-0.100000)"
fill="#9e9e9e" stroke="none">
<path d="M1395 10215 c-255 -56 -433 -218 -526 -475 l-24 -65 -3 -837 -3 -837
-242 -3 c-275 -5 -304 -10 -409 -81 -72 -48 -128 -117 -161 -197 l-22 -55 0
-3665 0 -3665 22 -55 c46 -113 140 -203 262 -252 l56 -23 6055 0 6055 0 56 23
c122 49 216 139 262 252 l22 55 0 3665 0 3665 -22 55 c-33 80 -89 149 -161
197 -105 71 -134 76 -408 81 l-241 3 -16 52 c-56 176 -186 326 -352 408 -166
81 57 73 -2330 79 l-2130 5 -57 27 c-81 37 -122 71 -163 134 -77 116 -78 122
-85 564 -6 394 -6 395 -33 475 -37 112 -90 198 -172 280 -82 81 -168 134 -280
173 l-80 27 -2405 2 c-1970 1 -2416 -1 -2465 -12z"/>
</g>
</svg>
